<?xml version="1.0" encoding="utf-8" standalone="no"?>
<!DOCTYPE svg PUBLIC "-//W3C//DTD SVG 1.1//EN"
  "http://www.w3.org/Graphics/SVG/1.1/DTD/svg11.dtd">
<svg xmlns:xlink="http://www.w3.org/1999/xlink" width="682.56pt" height="688.32pt" viewBox="0 0 682.56 688.32" xmlns="http://www.w3.org/2000/svg" version="1.1">
 <metadata>
  <rdf:RDF xmlns:dc="http://purl.org/dc/elements/1.1/" xmlns:cc="http://creativecommons.org/ns#" xmlns:rdf="http://www.w3.org/1999/02/22-rdf-syntax-ns#">
   <cc:Work>
    <dc:type rdf:resource="http://purl.org/dc/dcmitype/StillImage"/>
    <dc:date>2024-12-17T19:28:15.859147</dc:date>
    <dc:format>image/svg+xml</dc:format>
    <dc:creator>
     <cc:Agent>
      <dc:title>Matplotlib v3.8.0, https://matplotlib.org/</dc:title>
     </cc:Agent>
    </dc:creator>
   </cc:Work>
  </rdf:RDF>
 </metadata>
 <defs>
  <style type="text/css">*{stroke-linejoin: round; stroke-linecap: butt}</style>
 </defs>
 <g id="figure_1">
  <g id="patch_1">
   <path d="M 0 688.32 
L 682.56 688.32 
L 682.56 0 
L 0 0 
z
" style="fill: #ffffff"/>
  </g>
  <g id="axes_1">
   <g id="patch_2">
    <path d="M 85.32 612.6048 
L 614.304 612.6048 
L 614.304 82.5984 
L 85.32 82.5984 
z
" style="fill: #ffffff"/>
   </g>
   <g id="matplotlib.axis_1">
    <g id="xtick_1">
     <g id="line2d_1">
      <path d="M 109.364727 612.6048 
L 109.364727 82.5984 
" clip-path="url(#p2f77fe2f46)" style="fill: none; stroke: #b0b0b0; stroke-width: 0.8; stroke-linecap: square"/>
     </g>
     <g id="line2d_2">
      <defs>
       <path id="mcc01e84fb5" d="M 0 0 
L 0 3.5 
" style="stroke: #000000; stroke-width: 0.8"/>
      </defs>
      <g>
       <use xlink:href="#mcc01e84fb5" x="109.364727" y="612.6048" style="stroke: #000000; stroke-width: 0.8"/>
      </g>
     </g>
     <g id="text_1">
      <!-- 0 -->
      <g transform="translate(106.183477 627.203238) scale(0.1 -0.1)">
       <defs>
        <path id="DejaVuSans-30" d="M 2034 4250 
Q 1547 4250 1301 3770 
Q 1056 3291 1056 2328 
Q 1056 1369 1301 889 
Q 1547 409 2034 409 
Q 2525 409 2770 889 
Q 3016 1369 3016 2328 
Q 3016 3291 2770 3770 
Q 2525 4250 2034 4250 
z
M 2034 4750 
Q 2819 4750 3233 4129 
Q 3647 3509 3647 2328 
Q 3647 1150 3233 529 
Q 2819 -91 2034 -91 
Q 1250 -91 836 529 
Q 422 1150 422 2328 
Q 422 3509 836 4129 
Q 1250 4750 2034 4750 
z
" transform="scale(0.015625)"/>
       </defs>
       <use xlink:href="#DejaVuSans-30"/>
      </g>
     </g>
    </g>
    <g id="xtick_2">
     <g id="line2d_3">
      <path d="M 185.901471 612.6048 
L 185.901471 82.5984 
" clip-path="url(#p2f77fe2f46)" style="fill: none; stroke: #b0b0b0; stroke-width: 0.8; stroke-linecap: square"/>
     </g>
     <g id="line2d_4">
      <g>
       <use xlink:href="#mcc01e84fb5" x="185.901471" y="612.6048" style="stroke: #000000; stroke-width: 0.8"/>
      </g>
     </g>
     <g id="text_2">
      <!-- 1 -->
      <g transform="translate(182.720221 627.203238) scale(0.1 -0.1)">
       <defs>
        <path id="DejaVuSans-31" d="M 794 531 
L 1825 531 
L 1825 4091 
L 703 3866 
L 703 4441 
L 1819 4666 
L 2450 4666 
L 2450 531 
L 3481 531 
L 3481 0 
L 794 0 
L 794 531 
z
" transform="scale(0.015625)"/>
       </defs>
       <use xlink:href="#DejaVuSans-31"/>
      </g>
     </g>
    </g>
    <g id="xtick_3">
     <g id="line2d_5">
      <path d="M 262.438215 612.6048 
L 262.438215 82.5984 
" clip-path="url(#p2f77fe2f46)" style="fill: none; stroke: #b0b0b0; stroke-width: 0.8; stroke-linecap: square"/>
     </g>
     <g id="line2d_6">
      <g>
       <use xlink:href="#mcc01e84fb5" x="262.438215" y="612.6048" style="stroke: #000000; stroke-width: 0.8"/>
      </g>
     </g>
     <g id="text_3">
      <!-- 2 -->
      <g transform="translate(259.256965 627.203238) scale(0.1 -0.1)">
       <defs>
        <path id="DejaVuSans-32" d="M 1228 531 
L 3431 531 
L 3431 0 
L 469 0 
L 469 531 
Q 828 903 1448 1529 
Q 2069 2156 2228 2338 
Q 2531 2678 2651 2914 
Q 2772 3150 2772 3378 
Q 2772 3750 2511 3984 
Q 2250 4219 1831 4219 
Q 1534 4219 1204 4116 
Q 875 4013 500 3803 
L 500 4441 
Q 881 4594 1212 4672 
Q 1544 4750 1819 4750 
Q 2544 4750 2975 4387 
Q 3406 4025 3406 3419 
Q 3406 3131 3298 2873 
Q 3191 2616 2906 2266 
Q 2828 2175 2409 1742 
Q 1991 1309 1228 531 
z
" transform="scale(0.015625)"/>
       </defs>
       <use xlink:href="#DejaVuSans-32"/>
      </g>
     </g>
    </g>
    <g id="xtick_4">
     <g id="line2d_7">
      <path d="M 338.974959 612.6048 
L 338.974959 82.5984 
" clip-path="url(#p2f77fe2f46)" style="fill: none; stroke: #b0b0b0; stroke-width: 0.8; stroke-linecap: square"/>
     </g>
     <g id="line2d_8">
      <g>
       <use xlink:href="#mcc01e84fb5" x="338.974959" y="612.6048" style="stroke: #000000; stroke-width: 0.8"/>
      </g>
     </g>
     <g id="text_4">
      <!-- 3 -->
      <g transform="translate(335.793709 627.203238) scale(0.1 -0.1)">
       <defs>
        <path id="DejaVuSans-33" d="M 2597 2516 
Q 3050 2419 3304 2112 
Q 3559 1806 3559 1356 
Q 3559 666 3084 287 
Q 2609 -91 1734 -91 
Q 1441 -91 1130 -33 
Q 819 25 488 141 
L 488 750 
Q 750 597 1062 519 
Q 1375 441 1716 441 
Q 2309 441 2620 675 
Q 2931 909 2931 1356 
Q 2931 1769 2642 2001 
Q 2353 2234 1838 2234 
L 1294 2234 
L 1294 2753 
L 1863 2753 
Q 2328 2753 2575 2939 
Q 2822 3125 2822 3475 
Q 2822 3834 2567 4026 
Q 2313 4219 1838 4219 
Q 1578 4219 1281 4162 
Q 984 4106 628 3988 
L 628 4550 
Q 988 4650 1302 4700 
Q 1616 4750 1894 4750 
Q 2613 4750 3031 4423 
Q 3450 4097 3450 3541 
Q 3450 3153 3228 2886 
Q 3006 2619 2597 2516 
z
" transform="scale(0.015625)"/>
       </defs>
       <use xlink:href="#DejaVuSans-33"/>
      </g>
     </g>
    </g>
    <g id="xtick_5">
     <g id="line2d_9">
      <path d="M 415.511703 612.6048 
L 415.511703 82.5984 
" clip-path="url(#p2f77fe2f46)" style="fill: none; stroke: #b0b0b0; stroke-width: 0.8; stroke-linecap: square"/>
     </g>
     <g id="line2d_10">
      <g>
       <use xlink:href="#mcc01e84fb5" x="415.511703" y="612.6048" style="stroke: #000000; stroke-width: 0.8"/>
      </g>
     </g>
     <g id="text_5">
      <!-- 4 -->
      <g transform="translate(412.330453 627.203238) scale(0.1 -0.1)">
       <defs>
        <path id="DejaVuSans-34" d="M 2419 4116 
L 825 1625 
L 2419 1625 
L 2419 4116 
z
M 2253 4666 
L 3047 4666 
L 3047 1625 
L 3713 1625 
L 3713 1100 
L 3047 1100 
L 3047 0 
L 2419 0 
L 2419 1100 
L 313 1100 
L 313 1709 
L 2253 4666 
z
" transform="scale(0.015625)"/>
       </defs>
       <use xlink:href="#DejaVuSans-34"/>
      </g>
     </g>
    </g>
    <g id="xtick_6">
     <g id="line2d_11">
      <path d="M 492.048447 612.6048 
L 492.048447 82.5984 
" clip-path="url(#p2f77fe2f46)" style="fill: none; stroke: #b0b0b0; stroke-width: 0.8; stroke-linecap: square"/>
     </g>
     <g id="line2d_12">
      <g>
       <use xlink:href="#mcc01e84fb5" x="492.048447" y="612.6048" style="stroke: #000000; stroke-width: 0.8"/>
      </g>
     </g>
     <g id="text_6">
      <!-- 5 -->
      <g transform="translate(488.867197 627.203238) scale(0.1 -0.1)">
       <defs>
        <path id="DejaVuSans-35" d="M 691 4666 
L 3169 4666 
L 3169 4134 
L 1269 4134 
L 1269 2991 
Q 1406 3038 1543 3061 
Q 1681 3084 1819 3084 
Q 2600 3084 3056 2656 
Q 3513 2228 3513 1497 
Q 3513 744 3044 326 
Q 2575 -91 1722 -91 
Q 1428 -91 1123 -41 
Q 819 9 494 109 
L 494 744 
Q 775 591 1075 516 
Q 1375 441 1709 441 
Q 2250 441 2565 725 
Q 2881 1009 2881 1497 
Q 2881 1984 2565 2268 
Q 2250 2553 1709 2553 
Q 1456 2553 1204 2497 
Q 953 2441 691 2322 
L 691 4666 
z
" transform="scale(0.015625)"/>
       </defs>
       <use xlink:href="#DejaVuSans-35"/>
      </g>
     </g>
    </g>
    <g id="xtick_7">
     <g id="line2d_13">
      <path d="M 568.585191 612.6048 
L 568.585191 82.5984 
" clip-path="url(#p2f77fe2f46)" style="fill: none; stroke: #b0b0b0; stroke-width: 0.8; stroke-linecap: square"/>
     </g>
     <g id="line2d_14">
      <g>
       <use xlink:href="#mcc01e84fb5" x="568.585191" y="612.6048" style="stroke: #000000; stroke-width: 0.8"/>
      </g>
     </g>
     <g id="text_7">
      <!-- 6 -->
      <g transform="translate(565.403941 627.203238) scale(0.1 -0.1)">
       <defs>
        <path id="DejaVuSans-36" d="M 2113 2584 
Q 1688 2584 1439 2293 
Q 1191 2003 1191 1497 
Q 1191 994 1439 701 
Q 1688 409 2113 409 
Q 2538 409 2786 701 
Q 3034 994 3034 1497 
Q 3034 2003 2786 2293 
Q 2538 2584 2113 2584 
z
M 3366 4563 
L 3366 3988 
Q 3128 4100 2886 4159 
Q 2644 4219 2406 4219 
Q 1781 4219 1451 3797 
Q 1122 3375 1075 2522 
Q 1259 2794 1537 2939 
Q 1816 3084 2150 3084 
Q 2853 3084 3261 2657 
Q 3669 2231 3669 1497 
Q 3669 778 3244 343 
Q 2819 -91 2113 -91 
Q 1303 -91 875 529 
Q 447 1150 447 2328 
Q 447 3434 972 4092 
Q 1497 4750 2381 4750 
Q 2619 4750 2861 4703 
Q 3103 4656 3366 4563 
z
" transform="scale(0.015625)"/>
       </defs>
       <use xlink:href="#DejaVuSans-36"/>
      </g>
     </g>
    </g>
    <g id="text_8">
     <!-- Cross phase / (2$\pi$) -->
     <g transform="translate(304.362 640.882925) scale(0.1 -0.1)">
      <defs>
       <path id="DejaVuSans-43" d="M 4122 4306 
L 4122 3641 
Q 3803 3938 3442 4084 
Q 3081 4231 2675 4231 
Q 1875 4231 1450 3742 
Q 1025 3253 1025 2328 
Q 1025 1406 1450 917 
Q 1875 428 2675 428 
Q 3081 428 3442 575 
Q 3803 722 4122 1019 
L 4122 359 
Q 3791 134 3420 21 
Q 3050 -91 2638 -91 
Q 1578 -91 968 557 
Q 359 1206 359 2328 
Q 359 3453 968 4101 
Q 1578 4750 2638 4750 
Q 3056 4750 3426 4639 
Q 3797 4528 4122 4306 
z
" transform="scale(0.015625)"/>
       <path id="DejaVuSans-72" d="M 2631 2963 
Q 2534 3019 2420 3045 
Q 2306 3072 2169 3072 
Q 1681 3072 1420 2755 
Q 1159 2438 1159 1844 
L 1159 0 
L 581 0 
L 581 3500 
L 1159 3500 
L 1159 2956 
Q 1341 3275 1631 3429 
Q 1922 3584 2338 3584 
Q 2397 3584 2469 3576 
Q 2541 3569 2628 3553 
L 2631 2963 
z
" transform="scale(0.015625)"/>
       <path id="DejaVuSans-6f" d="M 1959 3097 
Q 1497 3097 1228 2736 
Q 959 2375 959 1747 
Q 959 1119 1226 758 
Q 1494 397 1959 397 
Q 2419 397 2687 759 
Q 2956 1122 2956 1747 
Q 2956 2369 2687 2733 
Q 2419 3097 1959 3097 
z
M 1959 3584 
Q 2709 3584 3137 3096 
Q 3566 2609 3566 1747 
Q 3566 888 3137 398 
Q 2709 -91 1959 -91 
Q 1206 -91 779 398 
Q 353 888 353 1747 
Q 353 2609 779 3096 
Q 1206 3584 1959 3584 
z
" transform="scale(0.015625)"/>
       <path id="DejaVuSans-73" d="M 2834 3397 
L 2834 2853 
Q 2591 2978 2328 3040 
Q 2066 3103 1784 3103 
Q 1356 3103 1142 2972 
Q 928 2841 928 2578 
Q 928 2378 1081 2264 
Q 1234 2150 1697 2047 
L 1894 2003 
Q 2506 1872 2764 1633 
Q 3022 1394 3022 966 
Q 3022 478 2636 193 
Q 2250 -91 1575 -91 
Q 1294 -91 989 -36 
Q 684 19 347 128 
L 347 722 
Q 666 556 975 473 
Q 1284 391 1588 391 
Q 1994 391 2212 530 
Q 2431 669 2431 922 
Q 2431 1156 2273 1281 
Q 2116 1406 1581 1522 
L 1381 1569 
Q 847 1681 609 1914 
Q 372 2147 372 2553 
Q 372 3047 722 3315 
Q 1072 3584 1716 3584 
Q 2034 3584 2315 3537 
Q 2597 3491 2834 3397 
z
" transform="scale(0.015625)"/>
       <path id="DejaVuSans-20" transform="scale(0.015625)"/>
       <path id="DejaVuSans-70" d="M 1159 525 
L 1159 -1331 
L 581 -1331 
L 581 3500 
L 1159 3500 
L 1159 2969 
Q 1341 3281 1617 3432 
Q 1894 3584 2278 3584 
Q 2916 3584 3314 3078 
Q 3713 2572 3713 1747 
Q 3713 922 3314 415 
Q 2916 -91 2278 -91 
Q 1894 -91 1617 61 
Q 1341 213 1159 525 
z
M 3116 1747 
Q 3116 2381 2855 2742 
Q 2594 3103 2138 3103 
Q 1681 3103 1420 2742 
Q 1159 2381 1159 1747 
Q 1159 1113 1420 752 
Q 1681 391 2138 391 
Q 2594 391 2855 752 
Q 3116 1113 3116 1747 
z
" transform="scale(0.015625)"/>
       <path id="DejaVuSans-68" d="M 3513 2113 
L 3513 0 
L 2938 0 
L 2938 2094 
Q 2938 2591 2744 2837 
Q 2550 3084 2163 3084 
Q 1697 3084 1428 2787 
Q 1159 2491 1159 1978 
L 1159 0 
L 581 0 
L 581 4863 
L 1159 4863 
L 1159 2956 
Q 1366 3272 1645 3428 
Q 1925 3584 2291 3584 
Q 2894 3584 3203 3211 
Q 3513 2838 3513 2113 
z
" transform="scale(0.015625)"/>
       <path id="DejaVuSans-61" d="M 2194 1759 
Q 1497 1759 1228 1600 
Q 959 1441 959 1056 
Q 959 750 1161 570 
Q 1363 391 1709 391 
Q 2188 391 2477 730 
Q 2766 1069 2766 1631 
L 2766 1759 
L 2194 1759 
z
M 3341 1997 
L 3341 0 
L 2766 0 
L 2766 531 
Q 2569 213 2275 61 
Q 1981 -91 1556 -91 
Q 1019 -91 701 211 
Q 384 513 384 1019 
Q 384 1609 779 1909 
Q 1175 2209 1959 2209 
L 2766 2209 
L 2766 2266 
Q 2766 2663 2505 2880 
Q 2244 3097 1772 3097 
Q 1472 3097 1187 3025 
Q 903 2953 641 2809 
L 641 3341 
Q 956 3463 1253 3523 
Q 1550 3584 1831 3584 
Q 2591 3584 2966 3190 
Q 3341 2797 3341 1997 
z
" transform="scale(0.015625)"/>
       <path id="DejaVuSans-65" d="M 3597 1894 
L 3597 1613 
L 953 1613 
Q 991 1019 1311 708 
Q 1631 397 2203 397 
Q 2534 397 2845 478 
Q 3156 559 3463 722 
L 3463 178 
Q 3153 47 2828 -22 
Q 2503 -91 2169 -91 
Q 1331 -91 842 396 
Q 353 884 353 1716 
Q 353 2575 817 3079 
Q 1281 3584 2069 3584 
Q 2775 3584 3186 3129 
Q 3597 2675 3597 1894 
z
M 3022 2063 
Q 3016 2534 2758 2815 
Q 2500 3097 2075 3097 
Q 1594 3097 1305 2825 
Q 1016 2553 972 2059 
L 3022 2063 
z
" transform="scale(0.015625)"/>
       <path id="DejaVuSans-2f" d="M 1625 4666 
L 2156 4666 
L 531 -594 
L 0 -594 
L 1625 4666 
z
" transform="scale(0.015625)"/>
       <path id="DejaVuSans-28" d="M 1984 4856 
Q 1566 4138 1362 3434 
Q 1159 2731 1159 2009 
Q 1159 1288 1364 580 
Q 1569 -128 1984 -844 
L 1484 -844 
Q 1016 -109 783 600 
Q 550 1309 550 2009 
Q 550 2706 781 3412 
Q 1013 4119 1484 4856 
L 1984 4856 
z
" transform="scale(0.015625)"/>
       <path id="DejaVuSans-Oblique-3c0" d="M 584 3500 
L 3938 3500 
L 3825 2925 
L 3384 2925 
L 2966 775 
Q 2922 550 2981 450 
Q 3038 353 3209 353 
Q 3256 353 3325 363 
Q 3397 369 3419 372 
L 3338 -44 
Q 3222 -84 3103 -103 
Q 2981 -122 2866 -122 
Q 2491 -122 2388 81 
Q 2284 288 2391 838 
L 2797 2925 
L 1506 2925 
L 938 0 
L 350 0 
L 919 2925 
L 472 2925 
L 584 3500 
z
" transform="scale(0.015625)"/>
       <path id="DejaVuSans-29" d="M 513 4856 
L 1013 4856 
Q 1481 4119 1714 3412 
Q 1947 2706 1947 2009 
Q 1947 1309 1714 600 
Q 1481 -109 1013 -844 
L 513 -844 
Q 928 -128 1133 580 
Q 1338 1288 1338 2009 
Q 1338 2731 1133 3434 
Q 928 4138 513 4856 
z
" transform="scale(0.015625)"/>
      </defs>
      <use xlink:href="#DejaVuSans-43" transform="translate(0 0.015625)"/>
      <use xlink:href="#DejaVuSans-72" transform="translate(69.824219 0.015625)"/>
      <use xlink:href="#DejaVuSans-6f" transform="translate(110.9375 0.015625)"/>
      <use xlink:href="#DejaVuSans-73" transform="translate(172.119141 0.015625)"/>
      <use xlink:href="#DejaVuSans-73" transform="translate(224.21875 0.015625)"/>
      <use xlink:href="#DejaVuSans-20" transform="translate(276.318359 0.015625)"/>
      <use xlink:href="#DejaVuSans-70" transform="translate(308.105469 0.015625)"/>
      <use xlink:href="#DejaVuSans-68" transform="translate(371.582031 0.015625)"/>
      <use xlink:href="#DejaVuSans-61" transform="translate(434.960938 0.015625)"/>
      <use xlink:href="#DejaVuSans-73" transform="translate(496.240234 0.015625)"/>
      <use xlink:href="#DejaVuSans-65" transform="translate(548.339844 0.015625)"/>
      <use xlink:href="#DejaVuSans-20" transform="translate(609.863281 0.015625)"/>
      <use xlink:href="#DejaVuSans-2f" transform="translate(641.650391 0.015625)"/>
      <use xlink:href="#DejaVuSans-20" transform="translate(675.341797 0.015625)"/>
      <use xlink:href="#DejaVuSans-28" transform="translate(707.128906 0.015625)"/>
      <use xlink:href="#DejaVuSans-32" transform="translate(746.142578 0.015625)"/>
      <use xlink:href="#DejaVuSans-Oblique-3c0" transform="translate(809.765625 0.015625)"/>
      <use xlink:href="#DejaVuSans-29" transform="translate(869.970703 0.015625)"/>
     </g>
    </g>
   </g>
   <g id="matplotlib.axis_2">
    <g id="ytick_1">
     <g id="line2d_15">
      <path d="M 85.32 588.629888 
L 614.304 588.629888 
" clip-path="url(#p2f77fe2f46)" style="fill: none; stroke: #b0b0b0; stroke-width: 0.8; stroke-linecap: square"/>
     </g>
     <g id="line2d_16">
      <defs>
       <path id="m6e79a99d22" d="M 0 0 
L -3.5 0 
" style="stroke: #000000; stroke-width: 0.8"/>
      </defs>
      <g>
       <use xlink:href="#m6e79a99d22" x="85.32" y="588.629888" style="stroke: #000000; stroke-width: 0.8"/>
      </g>
     </g>
     <g id="text_9">
      <!-- 0.00 -->
      <g transform="translate(56.054375 592.429107) scale(0.1 -0.1)">
       <defs>
        <path id="DejaVuSans-2e" d="M 684 794 
L 1344 794 
L 1344 0 
L 684 0 
L 684 794 
z
" transform="scale(0.015625)"/>
       </defs>
       <use xlink:href="#DejaVuSans-30"/>
       <use xlink:href="#DejaVuSans-2e" x="63.623047"/>
       <use xlink:href="#DejaVuSans-30" x="95.410156"/>
       <use xlink:href="#DejaVuSans-30" x="159.033203"/>
      </g>
     </g>
    </g>
    <g id="ytick_2">
     <g id="line2d_17">
      <path d="M 85.32 529.202474 
L 614.304 529.202474 
" clip-path="url(#p2f77fe2f46)" style="fill: none; stroke: #b0b0b0; stroke-width: 0.8; stroke-linecap: square"/>
     </g>
     <g id="line2d_18">
      <g>
       <use xlink:href="#m6e79a99d22" x="85.32" y="529.202474" style="stroke: #000000; stroke-width: 0.8"/>
      </g>
     </g>
     <g id="text_10">
      <!-- 0.05 -->
      <g transform="translate(56.054375 533.001693) scale(0.1 -0.1)">
       <use xlink:href="#DejaVuSans-30"/>
       <use xlink:href="#DejaVuSans-2e" x="63.623047"/>
       <use xlink:href="#DejaVuSans-30" x="95.410156"/>
       <use xlink:href="#DejaVuSans-35" x="159.033203"/>
      </g>
     </g>
    </g>
    <g id="ytick_3">
     <g id="line2d_19">
      <path d="M 85.32 469.77506 
L 614.304 469.77506 
" clip-path="url(#p2f77fe2f46)" style="fill: none; stroke: #b0b0b0; stroke-width: 0.8; stroke-linecap: square"/>
     </g>
     <g id="line2d_20">
      <g>
       <use xlink:href="#m6e79a99d22" x="85.32" y="469.77506" style="stroke: #000000; stroke-width: 0.8"/>
      </g>
     </g>
     <g id="text_11">
      <!-- 0.10 -->
      <g transform="translate(56.054375 473.574279) scale(0.1 -0.1)">
       <use xlink:href="#DejaVuSans-30"/>
       <use xlink:href="#DejaVuSans-2e" x="63.623047"/>
       <use xlink:href="#DejaVuSans-31" x="95.410156"/>
       <use xlink:href="#DejaVuSans-30" x="159.033203"/>
      </g>
     </g>
    </g>
    <g id="ytick_4">
     <g id="line2d_21">
      <path d="M 85.32 410.347646 
L 614.304 410.347646 
" clip-path="url(#p2f77fe2f46)" style="fill: none; stroke: #b0b0b0; stroke-width: 0.8; stroke-linecap: square"/>
     </g>
     <g id="line2d_22">
      <g>
       <use xlink:href="#m6e79a99d22" x="85.32" y="410.347646" style="stroke: #000000; stroke-width: 0.8"/>
      </g>
     </g>
     <g id="text_12">
      <!-- 0.15 -->
      <g transform="translate(56.054375 414.146864) scale(0.1 -0.1)">
       <use xlink:href="#DejaVuSans-30"/>
       <use xlink:href="#DejaVuSans-2e" x="63.623047"/>
       <use xlink:href="#DejaVuSans-31" x="95.410156"/>
       <use xlink:href="#DejaVuSans-35" x="159.033203"/>
      </g>
     </g>
    </g>
    <g id="ytick_5">
     <g id="line2d_23">
      <path d="M 85.32 350.920231 
L 614.304 350.920231 
" clip-path="url(#p2f77fe2f46)" style="fill: none; stroke: #b0b0b0; stroke-width: 0.8; stroke-linecap: square"/>
     </g>
     <g id="line2d_24">
      <g>
       <use xlink:href="#m6e79a99d22" x="85.32" y="350.920231" style="stroke: #000000; stroke-width: 0.8"/>
      </g>
     </g>
     <g id="text_13">
      <!-- 0.20 -->
      <g transform="translate(56.054375 354.71945) scale(0.1 -0.1)">
       <use xlink:href="#DejaVuSans-30"/>
       <use xlink:href="#DejaVuSans-2e" x="63.623047"/>
       <use xlink:href="#DejaVuSans-32" x="95.410156"/>
       <use xlink:href="#DejaVuSans-30" x="159.033203"/>
      </g>
     </g>
    </g>
    <g id="ytick_6">
     <g id="line2d_25">
      <path d="M 85.32 291.492817 
L 614.304 291.492817 
" clip-path="url(#p2f77fe2f46)" style="fill: none; stroke: #b0b0b0; stroke-width: 0.8; stroke-linecap: square"/>
     </g>
     <g id="line2d_26">
      <g>
       <use xlink:href="#m6e79a99d22" x="85.32" y="291.492817" style="stroke: #000000; stroke-width: 0.8"/>
      </g>
     </g>
     <g id="text_14">
      <!-- 0.25 -->
      <g transform="translate(56.054375 295.292036) scale(0.1 -0.1)">
       <use xlink:href="#DejaVuSans-30"/>
       <use xlink:href="#DejaVuSans-2e" x="63.623047"/>
       <use xlink:href="#DejaVuSans-32" x="95.410156"/>
       <use xlink:href="#DejaVuSans-35" x="159.033203"/>
      </g>
     </g>
    </g>
    <g id="ytick_7">
     <g id="line2d_27">
      <path d="M 85.32 232.065403 
L 614.304 232.065403 
" clip-path="url(#p2f77fe2f46)" style="fill: none; stroke: #b0b0b0; stroke-width: 0.8; stroke-linecap: square"/>
     </g>
     <g id="line2d_28">
      <g>
       <use xlink:href="#m6e79a99d22" x="85.32" y="232.065403" style="stroke: #000000; stroke-width: 0.8"/>
      </g>
     </g>
     <g id="text_15">
      <!-- 0.30 -->
      <g transform="translate(56.054375 235.864622) scale(0.1 -0.1)">
       <use xlink:href="#DejaVuSans-30"/>
       <use xlink:href="#DejaVuSans-2e" x="63.623047"/>
       <use xlink:href="#DejaVuSans-33" x="95.410156"/>
       <use xlink:href="#DejaVuSans-30" x="159.033203"/>
      </g>
     </g>
    </g>
    <g id="ytick_8">
     <g id="line2d_29">
      <path d="M 85.32 172.637989 
L 614.304 172.637989 
" clip-path="url(#p2f77fe2f46)" style="fill: none; stroke: #b0b0b0; stroke-width: 0.8; stroke-linecap: square"/>
     </g>
     <g id="line2d_30">
      <g>
       <use xlink:href="#m6e79a99d22" x="85.32" y="172.637989" style="stroke: #000000; stroke-width: 0.8"/>
      </g>
     </g>
     <g id="text_16">
      <!-- 0.35 -->
      <g transform="translate(56.054375 176.437208) scale(0.1 -0.1)">
       <use xlink:href="#DejaVuSans-30"/>
       <use xlink:href="#DejaVuSans-2e" x="63.623047"/>
       <use xlink:href="#DejaVuSans-33" x="95.410156"/>
       <use xlink:href="#DejaVuSans-35" x="159.033203"/>
      </g>
     </g>
    </g>
    <g id="ytick_9">
     <g id="line2d_31">
      <path d="M 85.32 113.210575 
L 614.304 113.210575 
" clip-path="url(#p2f77fe2f46)" style="fill: none; stroke: #b0b0b0; stroke-width: 0.8; stroke-linecap: square"/>
     </g>
     <g id="line2d_32">
      <g>
       <use xlink:href="#m6e79a99d22" x="85.32" y="113.210575" style="stroke: #000000; stroke-width: 0.8"/>
      </g>
     </g>
     <g id="text_17">
      <!-- 0.40 -->
      <g transform="translate(56.054375 117.009794) scale(0.1 -0.1)">
       <use xlink:href="#DejaVuSans-30"/>
       <use xlink:href="#DejaVuSans-2e" x="63.623047"/>
       <use xlink:href="#DejaVuSans-34" x="95.410156"/>
       <use xlink:href="#DejaVuSans-30" x="159.033203"/>
      </g>
     </g>
    </g>
    <g id="text_18">
     <!-- Output Power (mW) -->
     <g transform="translate(49.974688 396.977381) rotate(-90) scale(0.1 -0.1)">
      <defs>
       <path id="DejaVuSans-4f" d="M 2522 4238 
Q 1834 4238 1429 3725 
Q 1025 3213 1025 2328 
Q 1025 1447 1429 934 
Q 1834 422 2522 422 
Q 3209 422 3611 934 
Q 4013 1447 4013 2328 
Q 4013 3213 3611 3725 
Q 3209 4238 2522 4238 
z
M 2522 4750 
Q 3503 4750 4090 4092 
Q 4678 3434 4678 2328 
Q 4678 1225 4090 567 
Q 3503 -91 2522 -91 
Q 1538 -91 948 565 
Q 359 1222 359 2328 
Q 359 3434 948 4092 
Q 1538 4750 2522 4750 
z
" transform="scale(0.015625)"/>
       <path id="DejaVuSans-75" d="M 544 1381 
L 544 3500 
L 1119 3500 
L 1119 1403 
Q 1119 906 1312 657 
Q 1506 409 1894 409 
Q 2359 409 2629 706 
Q 2900 1003 2900 1516 
L 2900 3500 
L 3475 3500 
L 3475 0 
L 2900 0 
L 2900 538 
Q 2691 219 2414 64 
Q 2138 -91 1772 -91 
Q 1169 -91 856 284 
Q 544 659 544 1381 
z
M 1991 3584 
L 1991 3584 
z
" transform="scale(0.015625)"/>
       <path id="DejaVuSans-74" d="M 1172 4494 
L 1172 3500 
L 2356 3500 
L 2356 3053 
L 1172 3053 
L 1172 1153 
Q 1172 725 1289 603 
Q 1406 481 1766 481 
L 2356 481 
L 2356 0 
L 1766 0 
Q 1100 0 847 248 
Q 594 497 594 1153 
L 594 3053 
L 172 3053 
L 172 3500 
L 594 3500 
L 594 4494 
L 1172 4494 
z
" transform="scale(0.015625)"/>
       <path id="DejaVuSans-50" d="M 1259 4147 
L 1259 2394 
L 2053 2394 
Q 2494 2394 2734 2622 
Q 2975 2850 2975 3272 
Q 2975 3691 2734 3919 
Q 2494 4147 2053 4147 
L 1259 4147 
z
M 628 4666 
L 2053 4666 
Q 2838 4666 3239 4311 
Q 3641 3956 3641 3272 
Q 3641 2581 3239 2228 
Q 2838 1875 2053 1875 
L 1259 1875 
L 1259 0 
L 628 0 
L 628 4666 
z
" transform="scale(0.015625)"/>
       <path id="DejaVuSans-77" d="M 269 3500 
L 844 3500 
L 1563 769 
L 2278 3500 
L 2956 3500 
L 3675 769 
L 4391 3500 
L 4966 3500 
L 4050 0 
L 3372 0 
L 2619 2869 
L 1863 0 
L 1184 0 
L 269 3500 
z
" transform="scale(0.015625)"/>
       <path id="DejaVuSans-6d" d="M 3328 2828 
Q 3544 3216 3844 3400 
Q 4144 3584 4550 3584 
Q 5097 3584 5394 3201 
Q 5691 2819 5691 2113 
L 5691 0 
L 5113 0 
L 5113 2094 
Q 5113 2597 4934 2840 
Q 4756 3084 4391 3084 
Q 3944 3084 3684 2787 
Q 3425 2491 3425 1978 
L 3425 0 
L 2847 0 
L 2847 2094 
Q 2847 2600 2669 2842 
Q 2491 3084 2119 3084 
Q 1678 3084 1418 2786 
Q 1159 2488 1159 1978 
L 1159 0 
L 581 0 
L 581 3500 
L 1159 3500 
L 1159 2956 
Q 1356 3278 1631 3431 
Q 1906 3584 2284 3584 
Q 2666 3584 2933 3390 
Q 3200 3197 3328 2828 
z
" transform="scale(0.015625)"/>
       <path id="DejaVuSans-57" d="M 213 4666 
L 850 4666 
L 1831 722 
L 2809 4666 
L 3519 4666 
L 4500 722 
L 5478 4666 
L 6119 4666 
L 4947 0 
L 4153 0 
L 3169 4050 
L 2175 0 
L 1381 0 
L 213 4666 
z
" transform="scale(0.015625)"/>
      </defs>
      <use xlink:href="#DejaVuSans-4f"/>
      <use xlink:href="#DejaVuSans-75" x="78.710938"/>
      <use xlink:href="#DejaVuSans-74" x="142.089844"/>
      <use xlink:href="#DejaVuSans-70" x="181.298828"/>
      <use xlink:href="#DejaVuSans-75" x="244.775391"/>
      <use xlink:href="#DejaVuSans-74" x="308.154297"/>
      <use xlink:href="#DejaVuSans-20" x="347.363281"/>
      <use xlink:href="#DejaVuSans-50" x="379.150391"/>
      <use xlink:href="#DejaVuSans-6f" x="435.828125"/>
      <use xlink:href="#DejaVuSans-77" x="497.009766"/>
      <use xlink:href="#DejaVuSans-65" x="578.796875"/>
      <use xlink:href="#DejaVuSans-72" x="640.320312"/>
      <use xlink:href="#DejaVuSans-20" x="681.433594"/>
      <use xlink:href="#DejaVuSans-28" x="713.220703"/>
      <use xlink:href="#DejaVuSans-6d" x="752.234375"/>
      <use xlink:href="#DejaVuSans-57" x="849.646484"/>
      <use xlink:href="#DejaVuSans-29" x="948.523438"/>
     </g>
    </g>
   </g>
   <g id="line2d_33">
    <path d="M 109.364727 362.842326 
L 119.178902 391.715362 
L 128.993076 420.114304 
L 138.80725 447.572842 
L 148.621425 473.640107 
L 158.435599 497.888076 
L 168.249774 519.918597 
L 178.063948 539.36993 
L 187.878122 555.922684 
L 197.692297 569.305065 
L 207.506471 579.297333 
L 217.320646 585.735416 
L 227.13482 588.5136 
L 236.948994 587.586268 
L 246.763169 582.968647 
L 256.577343 574.736558 
L 266.391518 563.025172 
L 276.205692 548.026788 
L 286.019866 529.987681 
L 295.834041 509.204052 
L 305.648215 486.017167 
L 315.46239 460.807755 
L 325.276564 433.989753 
L 335.090738 406.003512 
L 344.904913 377.308566 
L 354.719087 348.376085 
L 364.533262 319.681139 
L 374.347436 291.694898 
L 384.16161 264.876896 
L 393.975785 239.667484 
L 403.789959 216.480599 
L 413.604134 195.69697 
L 423.418308 177.657863 
L 433.232482 162.65948 
L 443.046657 150.948093 
L 452.860831 142.716004 
L 462.675006 138.098383 
L 472.48918 137.171051 
L 482.303354 139.949236 
L 492.117529 146.387318 
L 501.931703 156.379586 
L 511.745878 169.761967 
L 521.560052 186.314722 
L 531.374226 205.766055 
L 541.188401 227.796576 
L 551.002575 252.044544 
L 560.81675 278.111809 
L 570.630924 305.570347 
L 580.445098 333.969289 
L 590.259273 362.842326 
" clip-path="url(#p2f77fe2f46)" style="fill: none; stroke: #1f77b4; stroke-width: 1.5; stroke-linecap: square"/>
    <defs>
     <path id="m84e51565c8" d="M 0 3 
C 0.795609 3 1.55874 2.683901 2.12132 2.12132 
C 2.683901 1.55874 3 0.795609 3 0 
C 3 -0.795609 2.683901 -1.55874 2.12132 -2.12132 
C 1.55874 -2.683901 0.795609 -3 0 -3 
C -0.795609 -3 -1.55874 -2.683901 -2.12132 -2.12132 
C -2.683901 -1.55874 -3 -0.795609 -3 0 
C -3 0.795609 -2.683901 1.55874 -2.12132 2.12132 
C -1.55874 2.683901 -0.795609 3 0 3 
z
" style="stroke: #1f77b4"/>
    </defs>
    <g clip-path="url(#p2f77fe2f46)">
     <use xlink:href="#m84e51565c8" x="109.364727" y="362.842326" style="fill: #1f77b4; stroke: #1f77b4"/>
     <use xlink:href="#m84e51565c8" x="119.178902" y="391.715362" style="fill: #1f77b4; stroke: #1f77b4"/>
     <use xlink:href="#m84e51565c8" x="128.993076" y="420.114304" style="fill: #1f77b4; stroke: #1f77b4"/>
     <use xlink:href="#m84e51565c8" x="138.80725" y="447.572842" style="fill: #1f77b4; stroke: #1f77b4"/>
     <use xlink:href="#m84e51565c8" x="148.621425" y="473.640107" style="fill: #1f77b4; stroke: #1f77b4"/>
     <use xlink:href="#m84e51565c8" x="158.435599" y="497.888076" style="fill: #1f77b4; stroke: #1f77b4"/>
     <use xlink:href="#m84e51565c8" x="168.249774" y="519.918597" style="fill: #1f77b4; stroke: #1f77b4"/>
     <use xlink:href="#m84e51565c8" x="178.063948" y="539.36993" style="fill: #1f77b4; stroke: #1f77b4"/>
     <use xlink:href="#m84e51565c8" x="187.878122" y="555.922684" style="fill: #1f77b4; stroke: #1f77b4"/>
     <use xlink:href="#m84e51565c8" x="197.692297" y="569.305065" style="fill: #1f77b4; stroke: #1f77b4"/>
     <use xlink:href="#m84e51565c8" x="207.506471" y="579.297333" style="fill: #1f77b4; stroke: #1f77b4"/>
     <use xlink:href="#m84e51565c8" x="217.320646" y="585.735416" style="fill: #1f77b4; stroke: #1f77b4"/>
     <use xlink:href="#m84e51565c8" x="227.13482" y="588.5136" style="fill: #1f77b4; stroke: #1f77b4"/>
     <use xlink:href="#m84e51565c8" x="236.948994" y="587.586268" style="fill: #1f77b4; stroke: #1f77b4"/>
     <use xlink:href="#m84e51565c8" x="246.763169" y="582.968647" style="fill: #1f77b4; stroke: #1f77b4"/>
     <use xlink:href="#m84e51565c8" x="256.577343" y="574.736558" style="fill: #1f77b4; stroke: #1f77b4"/>
     <use xlink:href="#m84e51565c8" x="266.391518" y="563.025172" style="fill: #1f77b4; stroke: #1f77b4"/>
     <use xlink:href="#m84e51565c8" x="276.205692" y="548.026788" style="fill: #1f77b4; stroke: #1f77b4"/>
     <use xlink:href="#m84e51565c8" x="286.019866" y="529.987681" style="fill: #1f77b4; stroke: #1f77b4"/>
     <use xlink:href="#m84e51565c8" x="295.834041" y="509.204052" style="fill: #1f77b4; stroke: #1f77b4"/>
     <use xlink:href="#m84e51565c8" x="305.648215" y="486.017167" style="fill: #1f77b4; stroke: #1f77b4"/>
     <use xlink:href="#m84e51565c8" x="315.46239" y="460.807755" style="fill: #1f77b4; stroke: #1f77b4"/>
     <use xlink:href="#m84e51565c8" x="325.276564" y="433.989753" style="fill: #1f77b4; stroke: #1f77b4"/>
     <use xlink:href="#m84e51565c8" x="335.090738" y="406.003512" style="fill: #1f77b4; stroke: #1f77b4"/>
     <use xlink:href="#m84e51565c8" x="344.904913" y="377.308566" style="fill: #1f77b4; stroke: #1f77b4"/>
     <use xlink:href="#m84e51565c8" x="354.719087" y="348.376085" style="fill: #1f77b4; stroke: #1f77b4"/>
     <use xlink:href="#m84e51565c8" x="364.533262" y="319.681139" style="fill: #1f77b4; stroke: #1f77b4"/>
     <use xlink:href="#m84e51565c8" x="374.347436" y="291.694898" style="fill: #1f77b4; stroke: #1f77b4"/>
     <use xlink:href="#m84e51565c8" x="384.16161" y="264.876896" style="fill: #1f77b4; stroke: #1f77b4"/>
     <use xlink:href="#m84e51565c8" x="393.975785" y="239.667484" style="fill: #1f77b4; stroke: #1f77b4"/>
     <use xlink:href="#m84e51565c8" x="403.789959" y="216.480599" style="fill: #1f77b4; stroke: #1f77b4"/>
     <use xlink:href="#m84e51565c8" x="413.604134" y="195.69697" style="fill: #1f77b4; stroke: #1f77b4"/>
     <use xlink:href="#m84e51565c8" x="423.418308" y="177.657863" style="fill: #1f77b4; stroke: #1f77b4"/>
     <use xlink:href="#m84e51565c8" x="433.232482" y="162.65948" style="fill: #1f77b4; stroke: #1f77b4"/>
     <use xlink:href="#m84e51565c8" x="443.046657" y="150.948093" style="fill: #1f77b4; stroke: #1f77b4"/>
     <use xlink:href="#m84e51565c8" x="452.860831" y="142.716004" style="fill: #1f77b4; stroke: #1f77b4"/>
     <use xlink:href="#m84e51565c8" x="462.675006" y="138.098383" style="fill: #1f77b4; stroke: #1f77b4"/>
     <use xlink:href="#m84e51565c8" x="472.48918" y="137.171051" style="fill: #1f77b4; stroke: #1f77b4"/>
     <use xlink:href="#m84e51565c8" x="482.303354" y="139.949236" style="fill: #1f77b4; stroke: #1f77b4"/>
     <use xlink:href="#m84e51565c8" x="492.117529" y="146.387318" style="fill: #1f77b4; stroke: #1f77b4"/>
     <use xlink:href="#m84e51565c8" x="501.931703" y="156.379586" style="fill: #1f77b4; stroke: #1f77b4"/>
     <use xlink:href="#m84e51565c8" x="511.745878" y="169.761967" style="fill: #1f77b4; stroke: #1f77b4"/>
     <use xlink:href="#m84e51565c8" x="521.560052" y="186.314722" style="fill: #1f77b4; stroke: #1f77b4"/>
     <use xlink:href="#m84e51565c8" x="531.374226" y="205.766055" style="fill: #1f77b4; stroke: #1f77b4"/>
     <use xlink:href="#m84e51565c8" x="541.188401" y="227.796576" style="fill: #1f77b4; stroke: #1f77b4"/>
     <use xlink:href="#m84e51565c8" x="551.002575" y="252.044544" style="fill: #1f77b4; stroke: #1f77b4"/>
     <use xlink:href="#m84e51565c8" x="560.81675" y="278.111809" style="fill: #1f77b4; stroke: #1f77b4"/>
     <use xlink:href="#m84e51565c8" x="570.630924" y="305.570347" style="fill: #1f77b4; stroke: #1f77b4"/>
     <use xlink:href="#m84e51565c8" x="580.445098" y="333.969289" style="fill: #1f77b4; stroke: #1f77b4"/>
     <use xlink:href="#m84e51565c8" x="590.259273" y="362.842326" style="fill: #1f77b4; stroke: #1f77b4"/>
    </g>
   </g>
   <g id="line2d_34">
    <path d="M 109.364727 347.597674 
L 119.178902 316.775197 
L 128.993076 286.458825 
L 138.80725 257.14635 
L 148.621425 229.319084 
L 158.435599 203.433949 
L 168.249774 179.915979 
L 178.063948 159.151337 
L 187.878122 141.480979 
L 197.692297 127.195051 
L 207.506471 116.528128 
L 217.320646 109.655361 
L 227.13482 106.6896 
L 236.948994 107.679543 
L 246.763169 112.608935 
L 256.577343 121.396836 
L 266.391518 133.898948 
L 276.205692 149.909987 
L 286.019866 169.167053 
L 295.834041 191.353944 
L 305.648215 216.106354 
L 315.46239 243.017847 
L 325.276564 271.646538 
L 335.090738 301.522344 
L 344.904913 332.154707 
L 354.719087 363.040642 
L 364.533262 393.673004 
L 374.347436 423.548811 
L 384.16161 452.177502 
L 393.975785 479.088995 
L 403.789959 503.841404 
L 413.604134 526.028296 
L 423.418308 545.285361 
L 433.232482 561.296401 
L 443.046657 573.798513 
L 452.860831 582.586414 
L 462.675006 587.515806 
L 472.48918 588.505748 
L 482.303354 585.539988 
L 492.117529 578.66722 
L 501.931703 568.000298 
L 511.745878 553.71437 
L 521.560052 536.044012 
L 531.374226 515.27937 
L 541.188401 491.761399 
L 551.002575 465.876264 
L 560.81675 438.048998 
L 570.630924 408.736524 
L 580.445098 378.420151 
L 590.259273 347.597674 
" clip-path="url(#p2f77fe2f46)" style="fill: none; stroke: #ff7f0e; stroke-width: 1.5; stroke-linecap: square"/>
    <defs>
     <path id="m5adfb0ba64" d="M 0 3 
C 0.795609 3 1.55874 2.683901 2.12132 2.12132 
C 2.683901 1.55874 3 0.795609 3 0 
C 3 -0.795609 2.683901 -1.55874 2.12132 -2.12132 
C 1.55874 -2.683901 0.795609 -3 0 -3 
C -0.795609 -3 -1.55874 -2.683901 -2.12132 -2.12132 
C -2.683901 -1.55874 -3 -0.795609 -3 0 
C -3 0.795609 -2.683901 1.55874 -2.12132 2.12132 
C -1.55874 2.683901 -0.795609 3 0 3 
z
" style="stroke: #ff7f0e"/>
    </defs>
    <g clip-path="url(#p2f77fe2f46)">
     <use xlink:href="#m5adfb0ba64" x="109.364727" y="347.597674" style="fill: #ff7f0e; stroke: #ff7f0e"/>
     <use xlink:href="#m5adfb0ba64" x="119.178902" y="316.775197" style="fill: #ff7f0e; stroke: #ff7f0e"/>
     <use xlink:href="#m5adfb0ba64" x="128.993076" y="286.458825" style="fill: #ff7f0e; stroke: #ff7f0e"/>
     <use xlink:href="#m5adfb0ba64" x="138.80725" y="257.14635" style="fill: #ff7f0e; stroke: #ff7f0e"/>
     <use xlink:href="#m5adfb0ba64" x="148.621425" y="229.319084" style="fill: #ff7f0e; stroke: #ff7f0e"/>
     <use xlink:href="#m5adfb0ba64" x="158.435599" y="203.433949" style="fill: #ff7f0e; stroke: #ff7f0e"/>
     <use xlink:href="#m5adfb0ba64" x="168.249774" y="179.915979" style="fill: #ff7f0e; stroke: #ff7f0e"/>
     <use xlink:href="#m5adfb0ba64" x="178.063948" y="159.151337" style="fill: #ff7f0e; stroke: #ff7f0e"/>
     <use xlink:href="#m5adfb0ba64" x="187.878122" y="141.480979" style="fill: #ff7f0e; stroke: #ff7f0e"/>
     <use xlink:href="#m5adfb0ba64" x="197.692297" y="127.195051" style="fill: #ff7f0e; stroke: #ff7f0e"/>
     <use xlink:href="#m5adfb0ba64" x="207.506471" y="116.528128" style="fill: #ff7f0e; stroke: #ff7f0e"/>
     <use xlink:href="#m5adfb0ba64" x="217.320646" y="109.655361" style="fill: #ff7f0e; stroke: #ff7f0e"/>
     <use xlink:href="#m5adfb0ba64" x="227.13482" y="106.6896" style="fill: #ff7f0e; stroke: #ff7f0e"/>
     <use xlink:href="#m5adfb0ba64" x="236.948994" y="107.679543" style="fill: #ff7f0e; stroke: #ff7f0e"/>
     <use xlink:href="#m5adfb0ba64" x="246.763169" y="112.608935" style="fill: #ff7f0e; stroke: #ff7f0e"/>
     <use xlink:href="#m5adfb0ba64" x="256.577343" y="121.396836" style="fill: #ff7f0e; stroke: #ff7f0e"/>
     <use xlink:href="#m5adfb0ba64" x="266.391518" y="133.898948" style="fill: #ff7f0e; stroke: #ff7f0e"/>
     <use xlink:href="#m5adfb0ba64" x="276.205692" y="149.909987" style="fill: #ff7f0e; stroke: #ff7f0e"/>
     <use xlink:href="#m5adfb0ba64" x="286.019866" y="169.167053" style="fill: #ff7f0e; stroke: #ff7f0e"/>
     <use xlink:href="#m5adfb0ba64" x="295.834041" y="191.353944" style="fill: #ff7f0e; stroke: #ff7f0e"/>
     <use xlink:href="#m5adfb0ba64" x="305.648215" y="216.106354" style="fill: #ff7f0e; stroke: #ff7f0e"/>
     <use xlink:href="#m5adfb0ba64" x="315.46239" y="243.017847" style="fill: #ff7f0e; stroke: #ff7f0e"/>
     <use xlink:href="#m5adfb0ba64" x="325.276564" y="271.646538" style="fill: #ff7f0e; stroke: #ff7f0e"/>
     <use xlink:href="#m5adfb0ba64" x="335.090738" y="301.522344" style="fill: #ff7f0e; stroke: #ff7f0e"/>
     <use xlink:href="#m5adfb0ba64" x="344.904913" y="332.154707" style="fill: #ff7f0e; stroke: #ff7f0e"/>
     <use xlink:href="#m5adfb0ba64" x="354.719087" y="363.040642" style="fill: #ff7f0e; stroke: #ff7f0e"/>
     <use xlink:href="#m5adfb0ba64" x="364.533262" y="393.673004" style="fill: #ff7f0e; stroke: #ff7f0e"/>
     <use xlink:href="#m5adfb0ba64" x="374.347436" y="423.548811" style="fill: #ff7f0e; stroke: #ff7f0e"/>
     <use xlink:href="#m5adfb0ba64" x="384.16161" y="452.177502" style="fill: #ff7f0e; stroke: #ff7f0e"/>
     <use xlink:href="#m5adfb0ba64" x="393.975785" y="479.088995" style="fill: #ff7f0e; stroke: #ff7f0e"/>
     <use xlink:href="#m5adfb0ba64" x="403.789959" y="503.841404" style="fill: #ff7f0e; stroke: #ff7f0e"/>
     <use xlink:href="#m5adfb0ba64" x="413.604134" y="526.028296" style="fill: #ff7f0e; stroke: #ff7f0e"/>
     <use xlink:href="#m5adfb0ba64" x="423.418308" y="545.285361" style="fill: #ff7f0e; stroke: #ff7f0e"/>
     <use xlink:href="#m5adfb0ba64" x="433.232482" y="561.296401" style="fill: #ff7f0e; stroke: #ff7f0e"/>
     <use xlink:href="#m5adfb0ba64" x="443.046657" y="573.798513" style="fill: #ff7f0e; stroke: #ff7f0e"/>
     <use xlink:href="#m5adfb0ba64" x="452.860831" y="582.586414" style="fill: #ff7f0e; stroke: #ff7f0e"/>
     <use xlink:href="#m5adfb0ba64" x="462.675006" y="587.515806" style="fill: #ff7f0e; stroke: #ff7f0e"/>
     <use xlink:href="#m5adfb0ba64" x="472.48918" y="588.505748" style="fill: #ff7f0e; stroke: #ff7f0e"/>
     <use xlink:href="#m5adfb0ba64" x="482.303354" y="585.539988" style="fill: #ff7f0e; stroke: #ff7f0e"/>
     <use xlink:href="#m5adfb0ba64" x="492.117529" y="578.66722" style="fill: #ff7f0e; stroke: #ff7f0e"/>
     <use xlink:href="#m5adfb0ba64" x="501.931703" y="568.000298" style="fill: #ff7f0e; stroke: #ff7f0e"/>
     <use xlink:href="#m5adfb0ba64" x="511.745878" y="553.71437" style="fill: #ff7f0e; stroke: #ff7f0e"/>
     <use xlink:href="#m5adfb0ba64" x="521.560052" y="536.044012" style="fill: #ff7f0e; stroke: #ff7f0e"/>
     <use xlink:href="#m5adfb0ba64" x="531.374226" y="515.27937" style="fill: #ff7f0e; stroke: #ff7f0e"/>
     <use xlink:href="#m5adfb0ba64" x="541.188401" y="491.761399" style="fill: #ff7f0e; stroke: #ff7f0e"/>
     <use xlink:href="#m5adfb0ba64" x="551.002575" y="465.876264" style="fill: #ff7f0e; stroke: #ff7f0e"/>
     <use xlink:href="#m5adfb0ba64" x="560.81675" y="438.048998" style="fill: #ff7f0e; stroke: #ff7f0e"/>
     <use xlink:href="#m5adfb0ba64" x="570.630924" y="408.736524" style="fill: #ff7f0e; stroke: #ff7f0e"/>
     <use xlink:href="#m5adfb0ba64" x="580.445098" y="378.420151" style="fill: #ff7f0e; stroke: #ff7f0e"/>
     <use xlink:href="#m5adfb0ba64" x="590.259273" y="347.597674" style="fill: #ff7f0e; stroke: #ff7f0e"/>
    </g>
   </g>
   <g id="patch_3">
    <path d="M 85.32 612.6048 
L 85.32 82.5984 
" style="fill: none; stroke: #000000; stroke-width: 0.8; stroke-linejoin: miter; stroke-linecap: square"/>
   </g>
   <g id="patch_4">
    <path d="M 614.304 612.6048 
L 614.304 82.5984 
" style="fill: none; stroke: #000000; stroke-width: 0.8; stroke-linejoin: miter; stroke-linecap: square"/>
   </g>
   <g id="patch_5">
    <path d="M 85.32 612.6048 
L 614.304 612.6048 
" style="fill: none; stroke: #000000; stroke-width: 0.8; stroke-linejoin: miter; stroke-linecap: square"/>
   </g>
   <g id="patch_6">
    <path d="M 85.32 82.5984 
L 614.304 82.5984 
" style="fill: none; stroke: #000000; stroke-width: 0.8; stroke-linejoin: miter; stroke-linecap: square"/>
   </g>
   <g id="text_19">
    <!-- Output power of Super PUC -->
    <g transform="translate(267.236063 76.5984) scale(0.12 -0.12)">
     <defs>
      <path id="DejaVuSans-66" d="M 2375 4863 
L 2375 4384 
L 1825 4384 
Q 1516 4384 1395 4259 
Q 1275 4134 1275 3809 
L 1275 3500 
L 2222 3500 
L 2222 3053 
L 1275 3053 
L 1275 0 
L 697 0 
L 697 3053 
L 147 3053 
L 147 3500 
L 697 3500 
L 697 3744 
Q 697 4328 969 4595 
Q 1241 4863 1831 4863 
L 2375 4863 
z
" transform="scale(0.015625)"/>
      <path id="DejaVuSans-53" d="M 3425 4513 
L 3425 3897 
Q 3066 4069 2747 4153 
Q 2428 4238 2131 4238 
Q 1616 4238 1336 4038 
Q 1056 3838 1056 3469 
Q 1056 3159 1242 3001 
Q 1428 2844 1947 2747 
L 2328 2669 
Q 3034 2534 3370 2195 
Q 3706 1856 3706 1288 
Q 3706 609 3251 259 
Q 2797 -91 1919 -91 
Q 1588 -91 1214 -16 
Q 841 59 441 206 
L 441 856 
Q 825 641 1194 531 
Q 1563 422 1919 422 
Q 2459 422 2753 634 
Q 3047 847 3047 1241 
Q 3047 1584 2836 1778 
Q 2625 1972 2144 2069 
L 1759 2144 
Q 1053 2284 737 2584 
Q 422 2884 422 3419 
Q 422 4038 858 4394 
Q 1294 4750 2059 4750 
Q 2388 4750 2728 4690 
Q 3069 4631 3425 4513 
z
" transform="scale(0.015625)"/>
      <path id="DejaVuSans-55" d="M 556 4666 
L 1191 4666 
L 1191 1831 
Q 1191 1081 1462 751 
Q 1734 422 2344 422 
Q 2950 422 3222 751 
Q 3494 1081 3494 1831 
L 3494 4666 
L 4128 4666 
L 4128 1753 
Q 4128 841 3676 375 
Q 3225 -91 2344 -91 
Q 1459 -91 1007 375 
Q 556 841 556 1753 
L 556 4666 
z
" transform="scale(0.015625)"/>
     </defs>
     <use xlink:href="#DejaVuSans-4f"/>
     <use xlink:href="#DejaVuSans-75" x="78.710938"/>
     <use xlink:href="#DejaVuSans-74" x="142.089844"/>
     <use xlink:href="#DejaVuSans-70" x="181.298828"/>
     <use xlink:href="#DejaVuSans-75" x="244.775391"/>
     <use xlink:href="#DejaVuSans-74" x="308.154297"/>
     <use xlink:href="#DejaVuSans-20" x="347.363281"/>
     <use xlink:href="#DejaVuSans-70" x="379.150391"/>
     <use xlink:href="#DejaVuSans-6f" x="442.626953"/>
     <use xlink:href="#DejaVuSans-77" x="503.808594"/>
     <use xlink:href="#DejaVuSans-65" x="585.595703"/>
     <use xlink:href="#DejaVuSans-72" x="647.119141"/>
     <use xlink:href="#DejaVuSans-20" x="688.232422"/>
     <use xlink:href="#DejaVuSans-6f" x="720.019531"/>
     <use xlink:href="#DejaVuSans-66" x="781.201172"/>
     <use xlink:href="#DejaVuSans-20" x="816.40625"/>
     <use xlink:href="#DejaVuSans-53" x="848.193359"/>
     <use xlink:href="#DejaVuSans-75" x="911.669922"/>
     <use xlink:href="#DejaVuSans-70" x="975.048828"/>
     <use xlink:href="#DejaVuSans-65" x="1038.525391"/>
     <use xlink:href="#DejaVuSans-72" x="1100.048828"/>
     <use xlink:href="#DejaVuSans-20" x="1141.162109"/>
     <use xlink:href="#DejaVuSans-50" x="1172.949219"/>
     <use xlink:href="#DejaVuSans-55" x="1233.251953"/>
     <use xlink:href="#DejaVuSans-43" x="1306.445312"/>
    </g>
   </g>
   <g id="legend_1">
    <g id="patch_7">
     <path d="M 514.4915 119.95465 
L 607.304 119.95465 
Q 609.304 119.95465 609.304 117.95465 
L 609.304 89.5984 
Q 609.304 87.5984 607.304 87.5984 
L 514.4915 87.5984 
Q 512.4915 87.5984 512.4915 89.5984 
L 512.4915 117.95465 
Q 512.4915 119.95465 514.4915 119.95465 
z
" style="fill: #ffffff; opacity: 0.8; stroke: #cccccc; stroke-linejoin: miter"/>
    </g>
    <g id="line2d_35">
     <path d="M 516.4915 95.696837 
L 526.4915 95.696837 
L 536.4915 95.696837 
" style="fill: none; stroke: #1f77b4; stroke-width: 1.5; stroke-linecap: square"/>
     <g>
      <use xlink:href="#m84e51565c8" x="526.4915" y="95.696837" style="fill: #1f77b4; stroke: #1f77b4"/>
     </g>
    </g>
    <g id="text_20">
     <!-- Cross Power -->
     <g transform="translate(544.4915 99.196837) scale(0.1 -0.1)">
      <use xlink:href="#DejaVuSans-43"/>
      <use xlink:href="#DejaVuSans-72" x="69.824219"/>
      <use xlink:href="#DejaVuSans-6f" x="108.6875"/>
      <use xlink:href="#DejaVuSans-73" x="169.869141"/>
      <use xlink:href="#DejaVuSans-73" x="221.96875"/>
      <use xlink:href="#DejaVuSans-20" x="274.068359"/>
      <use xlink:href="#DejaVuSans-50" x="305.855469"/>
      <use xlink:href="#DejaVuSans-6f" x="362.533203"/>
      <use xlink:href="#DejaVuSans-77" x="423.714844"/>
      <use xlink:href="#DejaVuSans-65" x="505.501953"/>
      <use xlink:href="#DejaVuSans-72" x="567.025391"/>
     </g>
    </g>
    <g id="line2d_36">
     <path d="M 516.4915 110.374962 
L 526.4915 110.374962 
L 536.4915 110.374962 
" style="fill: none; stroke: #ff7f0e; stroke-width: 1.5; stroke-linecap: square"/>
     <g>
      <use xlink:href="#m5adfb0ba64" x="526.4915" y="110.374962" style="fill: #ff7f0e; stroke: #ff7f0e"/>
     </g>
    </g>
    <g id="text_21">
     <!-- Bar Power -->
     <g transform="translate(544.4915 113.874962) scale(0.1 -0.1)">
      <defs>
       <path id="DejaVuSans-42" d="M 1259 2228 
L 1259 519 
L 2272 519 
Q 2781 519 3026 730 
Q 3272 941 3272 1375 
Q 3272 1813 3026 2020 
Q 2781 2228 2272 2228 
L 1259 2228 
z
M 1259 4147 
L 1259 2741 
L 2194 2741 
Q 2656 2741 2882 2914 
Q 3109 3088 3109 3444 
Q 3109 3797 2882 3972 
Q 2656 4147 2194 4147 
L 1259 4147 
z
M 628 4666 
L 2241 4666 
Q 2963 4666 3353 4366 
Q 3744 4066 3744 3513 
Q 3744 3084 3544 2831 
Q 3344 2578 2956 2516 
Q 3422 2416 3680 2098 
Q 3938 1781 3938 1306 
Q 3938 681 3513 340 
Q 3088 0 2303 0 
L 628 0 
L 628 4666 
z
" transform="scale(0.015625)"/>
      </defs>
      <use xlink:href="#DejaVuSans-42"/>
      <use xlink:href="#DejaVuSans-61" x="68.603516"/>
      <use xlink:href="#DejaVuSans-72" x="129.882812"/>
      <use xlink:href="#DejaVuSans-20" x="170.996094"/>
      <use xlink:href="#DejaVuSans-50" x="202.783203"/>
      <use xlink:href="#DejaVuSans-6f" x="259.460938"/>
      <use xlink:href="#DejaVuSans-77" x="320.642578"/>
      <use xlink:href="#DejaVuSans-65" x="402.429688"/>
      <use xlink:href="#DejaVuSans-72" x="463.953125"/>
     </g>
    </g>
   </g>
  </g>
 </g>
 <defs>
  <clipPath id="p2f77fe2f46">
   <rect x="85.32" y="82.5984" width="528.984" height="530.0064"/>
  </clipPath>
 </defs>
</svg>
